{"context": " More than 1 year has passed since last update.\n\n\u80cc\u666f\nWindows\u3067\u97f3\u58f0\u30d5\u30a1\u30a4\u30eb\u3084\u6620\u50cf\u30d5\u30a1\u30a4\u30eb\u3092\u6271\u3046\u3068\u304d\u306b\u5fc5\u9700\u54c1\u3068\u3082\u3044\u3048\u308bAviSynth\u3092\nLinux\u3067\u97f3\u58f0\u30d5\u30a1\u30a4\u30eb\u3084\u6620\u50cf\u30d5\u30a1\u30a4\u30eb\u3092\u6271\u3046\u3068\u304d\u306e\u5fc5\u9700\u54c1\u3067\u3042\u308bFFmpeg\u3067\u5229\u7528\u3067\u304d\u308b\u3088\u3046\u306b\u3057\u307e\u3057\u3087\u3046\n\n\u74b0\u5883\n\nWindows 7 64bit\nCentOS 6.7\n\n\n\u30c0\u30a6\u30f3\u30ed\u30fc\u30c9\n\u5404\u7a2e\u30a2\u30d7\u30ea\u30b1\u30fc\u30b7\u30e7\u30f3\u306e\u8aac\u660e\u306f\u5272\u611b\u3055\u305b\u3066\u3044\u305f\u3060\u304d\u307e\u3059\u3002\nAviSynth\n\u30c0\u30a6\u30f3\u30ed\u30fc\u30c9\u306f\u3053\u3061\u3089\n\u30d0\u30fc\u30b8\u30e7\u30f3\u306f2.6\uff082016\u5e742\u6708\u73fe\u5728\uff09\u3092\u30a4\u30f3\u30b9\u30c8\u30fc\u30eb\u3057\u307e\u3059\u3002\nVirtualDub\n\u30c0\u30a6\u30f3\u30ed\u30fc\u30c9\u306f\u3053\u3061\u3089\n\u30d0\u30fc\u30b8\u30e7\u30f3\u306f1.10.4\uff082016\u5e742\u6708\u73fe\u5728\uff09\u3092\u30a4\u30f3\u30b9\u30c8\u30fc\u30eb\u3057\u307e\u3059\u3002\n32bit(x86)\u7248\u304c\u3088\u3044\u3067\u3059\u3002\nFFmpeg\n\u30c0\u30a6\u30f3\u30ed\u30fc\u30c9\u306f\u3053\u3061\u3089\n\u30d0\u30fc\u30b8\u30e7\u30f3\u306f3.0\uff082016\u5e742\u6708\u73fe\u5728\uff09\u3067\u3059\u306d\u3002\n\n\u4e0b\u6e96\u5099\n\nVirtualDub\u3092\u30a4\u30f3\u30b9\u30c8\u30fc\u30eb\u3057\u3066\u304a\u304f\u3002zip\u306a\u306e\u3067\u9069\u5f53\u306b\u89e3\u51cd\u3057\u3066\u306d\u3002\n\u30e1\u30e2\u5e33\u3067AviSynth\u30b9\u30af\u30ea\u30d7\u30c8\u3092\u66f8\u304f\u3002\nVirtualDub\u306bAviSynth\u30b9\u30af\u30ea\u30d7\u30c8\u3092\u8aad\u307f\u3053\u307e\u305b\u308b\u3002\n\n\nAviSynth\u30b9\u30af\u30ea\u30d7\u30c8\n\nColorBars.avs\nColorBars().Trim(0, 1799)\n\n\n\nVirtualDub\u306b\u8aad\u307f\u8fbc\u307e\u305b\u308b\n\n\uff08VirtualDub\u3067\u8aad\u3081\u306a\u3044AVS\u30d5\u30a1\u30a4\u30eb\u306f\u8a18\u8ff0\u304c\u9593\u9055\u3063\u3066\u3044\u307e\u3059\u306e\u3067\u3001\u9069\u5b9c\u78ba\u8a8d\u3057\u3066\u304f\u3060\u3055\u3044\u3002\uff09\n\u3053\u308c\u3067\u4e0b\u6e96\u5099\u306fOK\n\nFFmpeg\u3092Windows\u7528\u306b\u30d3\u30eb\u30c9\u3059\u308b\n\n1. Mingw32\u306e\u30a4\u30f3\u30b9\u30c8\u30fc\u30eb\n# yum install mingw32-*\n\n\n2. FFmpeg\u306e\u30c0\u30a6\u30f3\u30ed\u30fc\u30c9\u3068\u30d3\u30eb\u30c9\n$ git clone git://source.ffmpeg.org/ffmpeg.git ffmpeg\n$ cd ffmpeg\n$ vi _x86.sh\n$ sh _x86.sh\n$ make\n\n\n_x86.sh\n#!/bin/bash\nexport PKG_CONFIG_PATH=/usr/i686-w64-mingw32/lib/pkgconfig\n\n./configure \\\n--prefix=/usr/i686-w64-mingw32 \\\n--enable-gpl \\\n--enable-version3 \\\n--enable-nonfree \\\n--disable-ffserver \\\n--disable-doc \\\n--disable-htmlpages \\\n--disable-manpages \\\n--disable-podpages \\\n--disable-txtpages \\\n--enable-memalign-hack \\\n--enable-static \\\n--disable-shared \\\n--disable-ffprobe \\\n--disable-ffplay \\\n--disable-ffserver \\\n--arch=x86_64 \\\n--cpu=x86_64 \\\n--cross-prefix=/usr/bin/i686-w64-mingw32- \\\n--enable-cross-compile \\\n--target-os=mingw32 \\\n--extra-cflags='-I/usr/i686-w64-mingw32/include' \\\n--extra-ldlibflags='-L/usr/i686-w64-mingw32/lib' \\\n--enable-avisynth\n\n\n\u6ce8\u610f\u70b9\u3067\u3059\u304c\nAviSynth\u304c32bit\u306a\u306e\u3067\u3001i686-w64-mingw32\u3092\u5229\u7528\u3057\u307e\u3059\u3002\n\u52d5\u304b\u3059Windows\u304c64bit\u306e\u5834\u5408\u306f\u3001arch\u3068cpu\u3092x86_64\u306b\u3057\u307e\u3059\u3002\nmake install\u306f\u5fc5\u8981\u306a\u3044\u3067\u3059\u3002\n\u7121\u4e8b\u30d3\u30eb\u30c9\u304c\u7d42\u308f\u3063\u305f\u3089\u3001Windows\u5074\u306bffmpeg.exe\u3068/usr/i686-w64-mingw32/sys-root/mingw/bin/libwinpthread-1.dll\u3092\u30c0\u30a6\u30f3\u30ed\u30fc\u30c9\u3057\u3066\u304d\u307e\u3057\u3087\u3046\u3002dll\u306fffmpeg.exe\u3068\u540c\u3058\u30c7\u30a3\u30ec\u30af\u30c8\u30ea\u306b\u3044\u308c\u3066\u304a\u3044\u3066\u304f\u3060\u3055\u3044\u3002\n\n\u30a8\u30f3\u30b3\u30fc\u30c9\n\u3055\u3041\u304a\u5f85\u3061\u304b\u306d\u306e\u30a8\u30f3\u30b3\u30fc\u30c9\u3067\u3059\u3002\n\u304c\u3001\u30e9\u30a4\u30d6\u30e9\u30ea\u3092\u3044\u308c\u306a\u3044\u3068\u3001\u6c4e\u7528\u7684\u306a\u30b3\u30fc\u30c7\u30c3\u30af\u304c\u3042\u3093\u307e\u308a\u306a\u3044\u3067\u3059\u306d\u3002\u3002\u3002\n\u3053\u3053\u3067\u306f\u3001Windows\u4e0a\u3067Apple ProRes\u3092\u4f5c\u3063\u3066\u307f\u307e\u3057\u3087\u3046\u3002\n> ffmpeg.exe -f avisynth -i ColorBars.avs -c:v prores -c:a aac -f mov ColorBars.mov\n\nffmpeg version N-78756-g6aac43f Copyright (c) 2000-2016 the FFmpeg developers\n  built with gcc 4.9.2 (GCC) 20141030 (Fedora MinGW 4.9.2-1.el6)\n  configuration: --prefix=/usr/i686-w64-mingw32 --enable-gpl --enable-version3 --enable-nonfree --disable-ffserver --disable-doc --disable-htmlpages --disable-manpages --disable-podpages --disable-txtpages --enable-memalign-hack --enable-static --disable-shared --arch=x86_64 --cpu=x86_64 --cross-prefix=/usr/bin/i686-w64-mingw32- --enable-cross-compile --target-os=mingw32 --extra-cflags=-I/usr/i686-w64-mingw32/include --extra-ldlibflags=-L/usr/i686-w64-mingw32/lib --enable-avisynth\n  libavutil      55. 19.100 / 55. 19.100\n  libavcodec     57. 27.100 / 57. 27.100\n  libavformat    57. 26.100 / 57. 26.100\n  libavdevice    57.  0.101 / 57.  0.101\n  libavfilter     6. 37.100 /  6. 37.100\n  libswscale      4.  0.100 /  4.  0.100\n  libswresample   2.  0.101 /  2.  0.101\n  libpostproc    54.  0.100 / 54.  0.100\nGuessed Channel Layout for  Input Stream #0.1 : stereo\nInput #0, avisynth, from 'ColorBars.avs':\n  Duration: 00:01:00.06, start: 0.000000, bitrate: 0 kb/s\n    Stream #0:0: Video: rawvideo (BGRA / 0x41524742), bgra, 640x480, 29.97 fps, 29.97 tbr, 29.97 tbn, 29.97 tbc\n    Stream #0:1: Audio: pcm_f32le, 48000 Hz, 2 channels, flt, 3072 kb/s\nFile 'ColorBars.mov' already exists. Overwrite ? [y/N] y\n[prores @ 03ae4b40] encoding with ProRes standard (apcn) profile\n[prores @ 03b288a0] encoding with ProRes standard (apcn) profile\n[prores @ 03b2ace0] encoding with ProRes standard (apcn) profile\n[prores @ 03b2d120] encoding with ProRes standard (apcn) profile\n[prores @ 00769b20] encoding with ProRes standard (apcn) profile\nOutput #0, mov, to 'ColorBars.mov':\n  Metadata:\n    encoder         : Lavf57.26.100\n    Stream #0:0: Video: prores (apcn / 0x6E637061), yuv422p10le, 640x480, q=2-31, 200 kb/s, 29.97 fps, 30k tbn, 29.97 tbc\n    Metadata:\n      encoder         : Lavc57.27.100 prores\n    Stream #0:1: Audio: aac (LC) (mp4a / 0x6134706D), 48000 Hz, stereo, fltp, 128 kb/s\n    Metadata:\n      encoder         : Lavc57.27.100 aac\nStream mapping:\n  Stream #0:0 -> #0:0 (rawvideo (native) -> prores (native))\n  Stream #0:1 -> #0:1 (pcm_f32le (native) -> aac (native))\nPress [q] to stop, [?] for help\nframe= 1800 fps=137 q=-0.0 Lsize=   40465kB time=00:01:00.07 bitrate=5518.0kbits/s speed=4.58x\nvideo:39475kB audio:945kB subtitle:0kB other streams:0kB global headers:0kB muxing overhead: 0.110743%\n[aac @ 03ac8920] Qavg: 10026.263\n\n\n\u30a8\u30d4\u30ed\u30fc\u30b0\n\u3053\u3093\u306a\u611f\u3058\u3067AviSynth\u304cFFmpeg\u3067\u4f7f\u3048\u308b\u3088\u3046\u306b\u306a\u308a\u307e\u3057\u305f\u3002\nFFmpeg\u3068AviSynth\u306e\u30b3\u30f3\u30d3\u30cd\u30fc\u30b7\u30e7\u30f3\u3092\u672c\u9818\u767a\u63ee\u3055\u305b\u308b\u305f\u3081\u306b\u306f\n\n\nFFmpeg\u3067YUY2/LPCM\u306eAVI\u306b\u30c7\u30b3\u30fc\u30c9\n\nAviSynth\u30b9\u30af\u30ea\u30d7\u30c8\u3092\u8a18\u8ff0\n\u305d\u306e\u30b9\u30af\u30ea\u30d7\u30c8\u3092FFmpeg\u306b\u8aad\u307f\u8fbc\u307e\u305b\u3001\u5404\u7a2e\u30d5\u30a9\u30fc\u30de\u30c3\u30c8\u306b\u30a8\u30f3\u30b3\u30fc\u30c9\n\n\u3068\u3044\u3046\u6d41\u308c\u304c\u5178\u578b\u7684\u306a\u624b\u6cd5\u304b\u3068\u601d\u3044\u307e\u3059\u3002\n\u305f\u3060\u3057\u3001\u5b9f\u969b\u306fFFmpeg\u3067AVI\u3092\u4f5c\u6210\u3059\u308b\u3068\u3001\u6642\u9593\u3068HDD\u5bb9\u91cf\u3092\u5927\u91cf\u306b\u6d88\u8cbb\u3057\u307e\u3059\u306e\u3067\nAviSynth\u5074\u3067\u3042\u3089\u3086\u308b\u30d5\u30a9\u30fc\u30de\u30c3\u30c8\u3092\u8aad\u307f\u8fbc\u3081\u308b\u3088\u3046\u306a\u5de5\u592b\u304c\u5fc5\u8981\u306b\u306a\u308a\u307e\u3059\u3002\n\uff08\u4f8b\uff09 DirectShowSource(), DGDecode_MPEG2Source(), QTSource_QTInput(), ...\n\u4ee5\u4e0a\u3067\u3059\u3002\n## \u80cc\u666f\n\n``Windows``\u3067\u97f3\u58f0\u30d5\u30a1\u30a4\u30eb\u3084\u6620\u50cf\u30d5\u30a1\u30a4\u30eb\u3092\u6271\u3046\u3068\u304d\u306b\u5fc5\u9700\u54c1\u3068\u3082\u3044\u3048\u308b``AviSynth``\u3092\n``Linux``\u3067\u97f3\u58f0\u30d5\u30a1\u30a4\u30eb\u3084\u6620\u50cf\u30d5\u30a1\u30a4\u30eb\u3092\u6271\u3046\u3068\u304d\u306e\u5fc5\u9700\u54c1\u3067\u3042\u308b``FFmpeg``\u3067\u5229\u7528\u3067\u304d\u308b\u3088\u3046\u306b\u3057\u307e\u3057\u3087\u3046\n\n### \u74b0\u5883\n\n * Windows 7 64bit\n * CentOS 6.7\n\n\n## \u30c0\u30a6\u30f3\u30ed\u30fc\u30c9\n\n\u5404\u7a2e\u30a2\u30d7\u30ea\u30b1\u30fc\u30b7\u30e7\u30f3\u306e\u8aac\u660e\u306f\u5272\u611b\u3055\u305b\u3066\u3044\u305f\u3060\u304d\u307e\u3059\u3002\n\n[AviSynth](http://www.avisynth.info/)\n\u30c0\u30a6\u30f3\u30ed\u30fc\u30c9\u306f[\u3053\u3061\u3089](https://sourceforge.net/projects/avisynth2/)\n\u30d0\u30fc\u30b8\u30e7\u30f3\u306f**2.6**\uff082016\u5e742\u6708\u73fe\u5728\uff09\u3092\u30a4\u30f3\u30b9\u30c8\u30fc\u30eb\u3057\u307e\u3059\u3002\n\n\n[VirtualDub](http://www.virtualdub.org/)\n\u30c0\u30a6\u30f3\u30ed\u30fc\u30c9\u306f[\u3053\u3061\u3089](http://virtualdub.sourceforge.net/)\n\u30d0\u30fc\u30b8\u30e7\u30f3\u306f**1.10.4**\uff082016\u5e742\u6708\u73fe\u5728\uff09\u3092\u30a4\u30f3\u30b9\u30c8\u30fc\u30eb\u3057\u307e\u3059\u3002\n32bit(x86)\u7248\u304c\u3088\u3044\u3067\u3059\u3002\n\n\n[FFmpeg](https://www.ffmpeg.org//)\n\u30c0\u30a6\u30f3\u30ed\u30fc\u30c9\u306f[\u3053\u3061\u3089](https://www.ffmpeg.org/download.html)\n\u30d0\u30fc\u30b8\u30e7\u30f3\u306f**3.0**\uff082016\u5e742\u6708\u73fe\u5728\uff09\u3067\u3059\u306d\u3002\n\n\n## \u4e0b\u6e96\u5099\n\n 1. VirtualDub\u3092\u30a4\u30f3\u30b9\u30c8\u30fc\u30eb\u3057\u3066\u304a\u304f\u3002zip\u306a\u306e\u3067\u9069\u5f53\u306b\u89e3\u51cd\u3057\u3066\u306d\u3002\n 2. \u30e1\u30e2\u5e33\u3067AviSynth\u30b9\u30af\u30ea\u30d7\u30c8\u3092\u66f8\u304f\u3002\n 3. VirtualDub\u306bAviSynth\u30b9\u30af\u30ea\u30d7\u30c8\u3092\u8aad\u307f\u3053\u307e\u305b\u308b\u3002\n\n### AviSynth\u30b9\u30af\u30ea\u30d7\u30c8\n\n```ColorBars.avs\nColorBars().Trim(0, 1799)\n```\n\n### VirtualDub\u306b\u8aad\u307f\u8fbc\u307e\u305b\u308b\n![demo2.png](https://qiita-image-store.s3.amazonaws.com/0/31085/7bc4a01d-47ee-a100-e27d-1c5650214c52.png)\n\n\uff08VirtualDub\u3067\u8aad\u3081\u306a\u3044AVS\u30d5\u30a1\u30a4\u30eb\u306f\u8a18\u8ff0\u304c\u9593\u9055\u3063\u3066\u3044\u307e\u3059\u306e\u3067\u3001\u9069\u5b9c\u78ba\u8a8d\u3057\u3066\u304f\u3060\u3055\u3044\u3002\uff09\n\n\u3053\u308c\u3067\u4e0b\u6e96\u5099\u306fOK\n\n\n## FFmpeg\u3092Windows\u7528\u306b\u30d3\u30eb\u30c9\u3059\u308b\n\n### 1. Mingw32\u306e\u30a4\u30f3\u30b9\u30c8\u30fc\u30eb\n```shell-session\n# yum install mingw32-*\n```\n\n### 2. FFmpeg\u306e\u30c0\u30a6\u30f3\u30ed\u30fc\u30c9\u3068\u30d3\u30eb\u30c9\n```shell-session\n$ git clone git://source.ffmpeg.org/ffmpeg.git ffmpeg\n$ cd ffmpeg\n$ vi _x86.sh\n$ sh _x86.sh\n$ make\n```\n\n```shell-session:_x86.sh\n#!/bin/bash\nexport PKG_CONFIG_PATH=/usr/i686-w64-mingw32/lib/pkgconfig\n\n./configure \\\n--prefix=/usr/i686-w64-mingw32 \\\n--enable-gpl \\\n--enable-version3 \\\n--enable-nonfree \\\n--disable-ffserver \\\n--disable-doc \\\n--disable-htmlpages \\\n--disable-manpages \\\n--disable-podpages \\\n--disable-txtpages \\\n--enable-memalign-hack \\\n--enable-static \\\n--disable-shared \\\n--disable-ffprobe \\\n--disable-ffplay \\\n--disable-ffserver \\\n--arch=x86_64 \\\n--cpu=x86_64 \\\n--cross-prefix=/usr/bin/i686-w64-mingw32- \\\n--enable-cross-compile \\\n--target-os=mingw32 \\\n--extra-cflags='-I/usr/i686-w64-mingw32/include' \\\n--extra-ldlibflags='-L/usr/i686-w64-mingw32/lib' \\\n--enable-avisynth\n```\n\n\u6ce8\u610f\u70b9\u3067\u3059\u304c\n``AviSynth``\u304c``32bit``\u306a\u306e\u3067\u3001``i686-w64-mingw32``\u3092\u5229\u7528\u3057\u307e\u3059\u3002\n\u52d5\u304b\u3059``Windows``\u304c``64bit``\u306e\u5834\u5408\u306f\u3001``arch``\u3068``cpu``\u3092``x86_64``\u306b\u3057\u307e\u3059\u3002\n\n``make install``\u306f\u5fc5\u8981\u306a\u3044\u3067\u3059\u3002\n\n\u7121\u4e8b\u30d3\u30eb\u30c9\u304c\u7d42\u308f\u3063\u305f\u3089\u3001Windows\u5074\u306b``ffmpeg.exe``\u3068``/usr/i686-w64-mingw32/sys-root/mingw/bin/libwinpthread-1.dll``\u3092\u30c0\u30a6\u30f3\u30ed\u30fc\u30c9\u3057\u3066\u304d\u307e\u3057\u3087\u3046\u3002``dll``\u306f``ffmpeg.exe``\u3068\u540c\u3058\u30c7\u30a3\u30ec\u30af\u30c8\u30ea\u306b\u3044\u308c\u3066\u304a\u3044\u3066\u304f\u3060\u3055\u3044\u3002\n\n\n## \u30a8\u30f3\u30b3\u30fc\u30c9\n\n\u3055\u3041\u304a\u5f85\u3061\u304b\u306d\u306e\u30a8\u30f3\u30b3\u30fc\u30c9\u3067\u3059\u3002\n\u304c\u3001\u30e9\u30a4\u30d6\u30e9\u30ea\u3092\u3044\u308c\u306a\u3044\u3068\u3001\u6c4e\u7528\u7684\u306a\u30b3\u30fc\u30c7\u30c3\u30af\u304c\u3042\u3093\u307e\u308a\u306a\u3044\u3067\u3059\u306d\u3002\u3002\u3002\n\u3053\u3053\u3067\u306f\u3001Windows\u4e0a\u3067Apple ProRes\u3092\u4f5c\u3063\u3066\u307f\u307e\u3057\u3087\u3046\u3002\n\n```shell-session\n> ffmpeg.exe -f avisynth -i ColorBars.avs -c:v prores -c:a aac -f mov ColorBars.mov\n\nffmpeg version N-78756-g6aac43f Copyright (c) 2000-2016 the FFmpeg developers\n  built with gcc 4.9.2 (GCC) 20141030 (Fedora MinGW 4.9.2-1.el6)\n  configuration: --prefix=/usr/i686-w64-mingw32 --enable-gpl --enable-version3 --enable-nonfree --disable-ffserver --disable-doc --disable-htmlpages --disable-manpages --disable-podpages --disable-txtpages --enable-memalign-hack --enable-static --disable-shared --arch=x86_64 --cpu=x86_64 --cross-prefix=/usr/bin/i686-w64-mingw32- --enable-cross-compile --target-os=mingw32 --extra-cflags=-I/usr/i686-w64-mingw32/include --extra-ldlibflags=-L/usr/i686-w64-mingw32/lib --enable-avisynth\n  libavutil      55. 19.100 / 55. 19.100\n  libavcodec     57. 27.100 / 57. 27.100\n  libavformat    57. 26.100 / 57. 26.100\n  libavdevice    57.  0.101 / 57.  0.101\n  libavfilter     6. 37.100 /  6. 37.100\n  libswscale      4.  0.100 /  4.  0.100\n  libswresample   2.  0.101 /  2.  0.101\n  libpostproc    54.  0.100 / 54.  0.100\nGuessed Channel Layout for  Input Stream #0.1 : stereo\nInput #0, avisynth, from 'ColorBars.avs':\n  Duration: 00:01:00.06, start: 0.000000, bitrate: 0 kb/s\n    Stream #0:0: Video: rawvideo (BGRA / 0x41524742), bgra, 640x480, 29.97 fps, 29.97 tbr, 29.97 tbn, 29.97 tbc\n    Stream #0:1: Audio: pcm_f32le, 48000 Hz, 2 channels, flt, 3072 kb/s\nFile 'ColorBars.mov' already exists. Overwrite ? [y/N] y\n[prores @ 03ae4b40] encoding with ProRes standard (apcn) profile\n[prores @ 03b288a0] encoding with ProRes standard (apcn) profile\n[prores @ 03b2ace0] encoding with ProRes standard (apcn) profile\n[prores @ 03b2d120] encoding with ProRes standard (apcn) profile\n[prores @ 00769b20] encoding with ProRes standard (apcn) profile\nOutput #0, mov, to 'ColorBars.mov':\n  Metadata:\n    encoder         : Lavf57.26.100\n    Stream #0:0: Video: prores (apcn / 0x6E637061), yuv422p10le, 640x480, q=2-31, 200 kb/s, 29.97 fps, 30k tbn, 29.97 tbc\n    Metadata:\n      encoder         : Lavc57.27.100 prores\n    Stream #0:1: Audio: aac (LC) (mp4a / 0x6134706D), 48000 Hz, stereo, fltp, 128 kb/s\n    Metadata:\n      encoder         : Lavc57.27.100 aac\nStream mapping:\n  Stream #0:0 -> #0:0 (rawvideo (native) -> prores (native))\n  Stream #0:1 -> #0:1 (pcm_f32le (native) -> aac (native))\nPress [q] to stop, [?] for help\nframe= 1800 fps=137 q=-0.0 Lsize=   40465kB time=00:01:00.07 bitrate=5518.0kbits/s speed=4.58x\nvideo:39475kB audio:945kB subtitle:0kB other streams:0kB global headers:0kB muxing overhead: 0.110743%\n[aac @ 03ac8920] Qavg: 10026.263\n```\n\n## \u30a8\u30d4\u30ed\u30fc\u30b0\n\n\u3053\u3093\u306a\u611f\u3058\u3067AviSynth\u304cFFmpeg\u3067\u4f7f\u3048\u308b\u3088\u3046\u306b\u306a\u308a\u307e\u3057\u305f\u3002\n\n``FFmpeg``\u3068``AviSynth``\u306e\u30b3\u30f3\u30d3\u30cd\u30fc\u30b7\u30e7\u30f3\u3092\u672c\u9818\u767a\u63ee\u3055\u305b\u308b\u305f\u3081\u306b\u306f\n\n 1. ``FFmpeg``\u3067``YUY2/LPCM``\u306e``AVI``\u306b\u30c7\u30b3\u30fc\u30c9\n 2. ``AviSynth``\u30b9\u30af\u30ea\u30d7\u30c8\u3092\u8a18\u8ff0\n 3. \u305d\u306e\u30b9\u30af\u30ea\u30d7\u30c8\u3092``FFmpeg``\u306b\u8aad\u307f\u8fbc\u307e\u305b\u3001\u5404\u7a2e\u30d5\u30a9\u30fc\u30de\u30c3\u30c8\u306b\u30a8\u30f3\u30b3\u30fc\u30c9\n\n\u3068\u3044\u3046\u6d41\u308c\u304c\u5178\u578b\u7684\u306a\u624b\u6cd5\u304b\u3068\u601d\u3044\u307e\u3059\u3002\n\n\u305f\u3060\u3057\u3001\u5b9f\u969b\u306f``FFmpeg``\u3067``AVI``\u3092\u4f5c\u6210\u3059\u308b\u3068\u3001\u6642\u9593\u3068HDD\u5bb9\u91cf\u3092\u5927\u91cf\u306b\u6d88\u8cbb\u3057\u307e\u3059\u306e\u3067\n``AviSynth``\u5074\u3067\u3042\u3089\u3086\u308b\u30d5\u30a9\u30fc\u30de\u30c3\u30c8\u3092\u8aad\u307f\u8fbc\u3081\u308b\u3088\u3046\u306a\u5de5\u592b\u304c\u5fc5\u8981\u306b\u306a\u308a\u307e\u3059\u3002\n\uff08\u4f8b\uff09 DirectShowSource(), DGDecode_MPEG2Source(), QTSource_QTInput(), ...\n\n\u4ee5\u4e0a\u3067\u3059\u3002\n", "tags": ["ffmpeg", "Windows", "AviSynth"]}